<?xml version="1.0" encoding="UTF-8" standalone="no"?>
<!-- Created with Inkscape (http://www.inkscape.org/) -->

<svg
   xmlns:dc="http://purl.org/dc/elements/1.1/"
   xmlns:cc="http://creativecommons.org/ns#"
   xmlns:rdf="http://www.w3.org/1999/02/22-rdf-syntax-ns#"
   xmlns:svg="http://www.w3.org/2000/svg"
   xmlns="http://www.w3.org/2000/svg"
   xmlns:sodipodi="http://sodipodi.sourceforge.net/DTD/sodipodi-0.dtd"
   xmlns:inkscape="http://www.inkscape.org/namespaces/inkscape"
   width="297mm"
   height="210mm"
   viewBox="0 0 297 210"
   version="1.1"
   id="svg8"
   inkscape:version="0.92.4 (5da689c313, 2019-01-14)"
   sodipodi:docname="logo.svg">
  <defs
     id="defs2" />
  <sodipodi:namedview
     id="base"
     pagecolor="#ffffff"
     bordercolor="#666666"
     borderopacity="1.0"
     inkscape:pageopacity="0.0"
     inkscape:pageshadow="2"
     inkscape:zoom="1.0684127"
     inkscape:cx="445.66781"
     inkscape:cy="396.85039"
     inkscape:document-units="mm"
     inkscape:current-layer="layer1"
     showgrid="false"
     inkscape:window-width="1920"
     inkscape:window-height="1017"
     inkscape:window-x="-8"
     inkscape:window-y="-8"
     inkscape:window-maximized="1" />
  <metadata
     id="metadata5">
    <rdf:RDF>
      <cc:Work
         rdf:about="">
        <dc:format>image/svg+xml</dc:format>
        <dc:type
           rdf:resource="http://purl.org/dc/dcmitype/StillImage" />
        <dc:title></dc:title>
      </cc:Work>
    </rdf:RDF>
  </metadata>
  <g
     inkscape:label="Layer 1"
     inkscape:groupmode="layer"
     id="layer1"
     transform="translate(0,-87)">
    <path
       style="fill:#000000;stroke-width:0.21044537"
       d="m 75.740785,284.91198 c -1.921524,-0.68539 -3.514014,-2.56919 -3.514014,-4.1568 0,-0.58369 0.01412,-0.59 1.315283,-0.58788 l 1.315284,0.002 0.355242,0.84571 c 0.696837,1.65892 3.395149,2.1817 4.671744,0.9051 0.989043,-0.98904 0.915229,-2.63075 -0.149654,-3.32848 -0.279297,-0.18301 -1.273624,-0.42008 -2.209615,-0.52683 -2.469448,-0.28165 -3.782823,-1.07046 -4.737323,-2.84525 -0.651097,-1.21064 -0.652145,-4.25622 -0.0019,-5.47434 0.984958,-1.84509 2.552961,-2.84523 4.702656,-2.99956 0.949248,-0.0682 1.60618,10e-4 2.144335,0.22592 l 0.775841,0.32417 0.55285,-0.72483 0.552853,-0.72483 1.013332,0.7935 1.013325,0.79349 -0.58486,0.80128 -0.584866,0.80128 0.535479,0.95808 c 0.427937,0.76567 0.533657,1.23868 0.526417,2.3554 -0.0108,1.65746 -0.382614,2.6117 -1.399376,3.59092 l -0.748104,0.72047 0.701579,0.47674 c 1.997671,1.35745 1.857821,5.07302 -0.256782,6.82209 -1.402692,1.16023 -4.172523,1.60069 -5.989742,0.9525 z m 3.417707,-9.76116 c 1.981259,-1.06256 1.979249,-4.46431 -0.0033,-5.55659 -0.49635,-0.27347 -0.976353,-0.3651 -1.543859,-0.29473 -2.810468,0.3485 -3.601265,4.15212 -1.19716,5.75817 0.86469,0.57765 1.7828,0.60881 2.744304,0.0932 z m 140.947808,9.76116 c -1.92152,-0.68539 -3.51401,-2.56919 -3.51401,-4.1568 0,-0.58395 0.0136,-0.59002 1.32562,-0.59002 1.32181,0 1.32638,0.002 1.5897,0.73032 1.05102,2.90653 6.12642,1.85194 5.37252,-1.11633 -0.27435,-1.08016 -0.97514,-1.48446 -2.96686,-1.71162 -2.49293,-0.28432 -3.8028,-1.068 -4.76002,-2.84784 -0.6511,-1.21064 -0.65214,-4.25622 -0.002,-5.47433 0.98495,-1.8451 2.55296,-2.84524 4.70265,-2.99957 0.94925,-0.0682 1.60618,10e-4 2.14434,0.22592 l 0.77584,0.32417 0.55285,-0.72483 0.55285,-0.72482 1.01333,0.79349 1.01334,0.7935 -0.58487,0.80127 -0.58487,0.80129 0.53548,0.95807 c 0.42794,0.76568 0.53366,1.23868 0.52642,2.3554 -0.0108,1.66702 -0.40361,2.67684 -1.41076,3.62681 l -0.74084,0.69878 0.63775,0.40379 c 1.39154,0.88106 1.90629,3.4537 1.06268,5.31109 -1.01798,2.24131 -4.56509,3.47683 -7.24126,2.52226 z m 3.41771,-9.76116 c 1.38747,-0.74411 1.9242,-2.90881 1.10155,-4.44273 -0.4464,-0.83236 -1.535,-1.48609 -2.47468,-1.48609 -1.40389,0 -2.82215,1.58637 -2.82215,3.15668 0,1.57031 1.41826,3.15668 2.82215,3.15668 0.36087,0 0.97877,-0.17304 1.37313,-0.38454 z m -113.39908,3.17986 c -1.28585,-0.45416 -2.6114,-1.83715 -3.06246,-3.19514 -0.47487,-1.42971 -0.37769,-4.19156 0.18825,-5.34964 1.45306,-2.97343 5.70203,-4.03707 8.01489,-2.00636 l 0.73379,0.64428 v -0.65314 -0.65313 h 1.3679 1.36789 v 5.5768 5.5768 h -1.36789 -1.3679 v -0.65313 -0.65314 l -0.7308,0.64166 c -1.24408,1.09231 -3.28701,1.37992 -5.14367,0.72414 z m 4.33853,-2.7868 c 0.89639,-0.54656 1.38562,-1.55267 1.38562,-2.84953 0,-2.04379 -1.16103,-3.26033 -3.11158,-3.26033 -2.02592,0 -3.15668,1.16789 -3.15668,3.26033 0,1.46183 0.37323,2.20473 1.43194,2.85027 0.89813,0.54763 2.55193,0.54727 3.4507,-8.4e-4 z m 118.14068,2.7868 c -1.28586,-0.45416 -2.61141,-1.83715 -3.06246,-3.19514 -0.47488,-1.42971 -0.37769,-4.19156 0.18824,-5.34964 1.45306,-2.97343 5.70204,-4.03707 8.01489,-2.00636 l 0.7338,0.64428 v -0.65314 -0.65313 h 1.36789 1.3679 v 5.5768 5.5768 h -1.3679 -1.36789 v -0.65313 -0.65314 l -0.73082,0.64166 c -1.24406,1.09231 -3.287,1.37992 -5.14365,0.72414 z m 4.33853,-2.7868 c 0.89639,-0.54656 1.38562,-1.55267 1.38562,-2.84953 0,-2.053 -1.15928,-3.25967 -3.13308,-3.26112 -2.05239,-10e-4 -3.35591,1.45822 -3.16162,3.54048 0.12131,1.30008 0.51638,1.99654 1.45837,2.57091 0.89813,0.54763 2.55194,0.54727 3.45071,-8.4e-4 z m -173.987785,2.73817 c -2.402548,-0.72903 -3.986172,-2.97896 -3.986172,-5.66333 0,-3.51047 2.444323,-5.92206 6.002442,-5.92206 3.414824,0 5.514496,2.00539 5.62797,5.37524 l 0.04931,1.46423 -4.366742,0.0569 c -3.489159,0.0455 -4.366741,0.11376 -4.366741,0.3399 0,0.4817 0.877898,1.42857 1.606914,1.73318 1.24191,0.5189 3.424047,0.27902 4.298008,-0.47247 0.282902,-0.24326 0.451586,-0.15634 1.224005,0.6307 l 0.895883,0.91284 -0.65526,0.55136 c -0.360392,0.30325 -1.141457,0.69575 -1.7357,0.87222 -1.128474,0.33512 -3.668265,0.40219 -4.593913,0.12131 z m 4.852533,-7.33711 c 0,-0.20984 -0.279673,-0.64947 -0.621498,-0.97695 -0.731769,-0.70108 -2.251913,-0.94157 -3.450765,-0.54591 -0.707719,0.23356 -1.820207,1.27874 -1.820207,1.71008 0,0.10951 1.285598,0.19429 2.946235,0.19429 2.704589,0 2.946235,-0.0313 2.946235,-0.38151 z m 20.533556,7.12418 c -2.14589,-0.863 -3.48748,-2.9597 -3.48748,-5.4504 0,-3.51047 2.44432,-5.92206 6.00244,-5.92206 3.41482,0 5.5145,2.00539 5.62797,5.37524 l 0.0493,1.46423 -4.36674,0.0569 c -4.75157,0.0619 -4.79704,0.0759 -3.91052,1.20291 0.97003,1.2332 3.155,1.53335 4.86396,0.66816 l 0.97216,-0.49217 0.89461,0.91153 c 0.86919,0.88564 0.88294,0.92089 0.484,1.24103 -1.04436,0.8381 -2.30305,1.226 -4.19861,1.29389 -1.51215,0.0542 -2.1031,-0.0162 -2.9311,-0.34924 z m 5.35122,-7.12418 c 0,-0.20984 -0.27967,-0.64947 -0.62149,-0.97695 -0.73177,-0.70108 -2.25192,-0.94157 -3.45077,-0.54591 -0.70772,0.23356 -1.82021,1.27874 -1.82021,1.71008 0,0.10951 1.2856,0.19429 2.94624,0.19429 2.70459,0 2.94623,-0.0313 2.94623,-0.38151 z m 7.362386,7.06316 c -1.562876,-0.79218 -1.773626,-1.38937 -1.856676,-5.26114 l -0.0711,-3.31451 h -1.03373 -1.03374 v -1.15745 -1.15745 h 1.05223 1.05222 v -1.47312 c 0,-1.29598 0.0471,-1.47312 0.39152,-1.47312 0.21534,0 0.830886,-0.0602 1.367896,-0.13382 l 0.97637,-0.13383 v 1.60694 1.60695 h 1.57834 1.57834 v 1.15745 1.15745 h -1.57834 -1.57834 v 2.62066 c 0,3.57154 0.29091,4.10432 2.07635,3.80267 0.78685,-0.13294 0.79892,-0.12448 1.05836,0.74146 0.14434,0.48177 0.30884,0.99685 0.36554,1.14462 0.14307,0.37283 -1.0124,0.73974 -2.32961,0.73974 -0.70442,0 -1.40714,-0.16508 -2.01562,-0.4735 z m 38.45394,0.12393 c -2.27971,-0.78788 -3.72725,-2.92907 -3.72725,-5.51331 0,-3.51047 2.44432,-5.92206 6.00244,-5.92206 3.41482,0 5.5145,2.00539 5.62797,5.37524 l 0.0493,1.46423 -4.36675,0.0569 c -4.72517,0.0616 -4.79268,0.0814 -3.94358,1.16087 0.96351,1.22491 3.56749,1.53478 5.13342,0.61086 l 0.67022,-0.39544 0.92723,0.79859 c 0.89854,0.77388 0.9157,0.81134 0.55439,1.21058 -1.13125,1.25001 -4.85442,1.87001 -6.9274,1.15356 z m 5.11145,-7.18709 c 0,-0.20984 -0.27967,-0.64947 -0.62149,-0.97695 -0.73177,-0.70108 -2.25192,-0.94157 -3.45077,-0.54591 -0.70772,0.23356 -1.82021,1.27874 -1.82021,1.71008 0,0.10951 1.2856,0.19429 2.94624,0.19429 2.70459,0 2.94623,-0.0313 2.94623,-0.38151 z m 26.59308,7.11568 c -0.93215,-0.30408 -1.49928,-0.65172 -2.04052,-1.25082 -1.76331,-1.95177 -1.50198,-5.0827 0.52724,-6.31674 l 0.60983,-0.37086 -0.5514,-0.36128 c -0.30326,-0.19871 -0.73077,-0.75638 -0.95002,-1.23927 -1.02561,-2.25888 0.0456,-4.76377 2.51554,-5.88223 0.76597,-0.34686 1.41215,-0.44213 3.07427,-0.45325 2.4731,-0.0165 3.65667,0.34645 4.72569,1.4494 0.64839,0.66896 1.36226,2.50462 1.12905,2.90325 -0.0508,0.0868 -0.70229,0.15784 -1.4478,0.15784 -1.09396,0 -1.35548,-0.064 -1.35548,-0.33186 0,-0.67156 -1.1272,-1.50402 -2.24463,-1.65771 -2.62853,-0.36152 -4.58933,1.2826 -3.6416,3.05345 0.52335,0.97788 1.3021,1.13717 5.93884,1.21474 l 4.36674,0.0731 v 1.13906 c 0,1.11676 -0.012,1.13905 -0.61067,1.13905 -0.58688,0 -0.61615,0.0472 -0.75117,1.21054 -0.16764,1.44436 0.0981,2.27968 0.8315,2.61385 0.49158,0.22397 0.53034,0.34684 0.53034,1.68097 0,1.30663 -0.0394,1.43934 -0.42765,1.43934 -0.81703,0 -1.85784,-0.59538 -2.20105,-1.25907 l -0.34176,-0.66089 -0.42867,0.54496 c -0.78545,0.99853 -1.98513,1.44617 -4.07168,1.51925 -1.46042,0.0512 -2.18954,-0.0301 -3.18494,-0.35478 z m 4.5935,-2.5623 c 0.45432,-0.13612 1.05719,-0.52219 1.3397,-0.85793 0.4279,-0.50853 0.51365,-0.8361 0.51365,-1.96219 v -1.35175 l -2.05185,10e-4 c -2.51556,10e-4 -3.443,0.24173 -4.14276,1.07335 -1.68661,2.00442 1.17489,4.046 4.34126,3.09734 z m 31.25493,2.63371 c -2.27971,-0.78788 -3.72725,-2.92907 -3.72725,-5.51331 0,-3.51047 2.44432,-5.92206 6.00244,-5.92206 3.41483,0 5.5145,2.00539 5.62797,5.37524 l 0.0493,1.46423 -4.36674,0.0569 c -4.72518,0.0616 -4.79269,0.0814 -3.94359,1.16087 0.96357,1.22499 3.5675,1.53477 5.13362,0.61074 l 0.67042,-0.39556 0.91501,0.81199 c 0.87558,0.77702 0.89946,0.82918 0.55419,1.2107 -1.11969,1.23724 -4.85345,1.85291 -6.91538,1.14028 z m 5.11146,-7.18709 c 0,-0.20984 -0.27968,-0.64947 -0.6215,-0.97695 -0.73177,-0.70108 -2.25191,-0.94157 -3.45077,-0.54591 -0.70772,0.23356 -1.8202,1.27874 -1.8202,1.71008 0,0.10951 1.28559,0.19429 2.94623,0.19429 2.70459,0 2.94624,-0.0313 2.94624,-0.38151 z m -165.447438,-0.6181 -3.294948,-7.94431 1.488635,-0.0625 c 0.818749,-0.0344 1.599149,-0.0201 1.734221,0.0317 0.135072,0.0518 1.273129,2.75524 2.529014,6.00757 1.255888,3.25234 2.344671,5.91334 2.419518,5.91334 0.07485,0 1.177423,-2.67529 2.450165,-5.94508 l 2.314078,-5.94508 1.742639,-0.0615 c 0.958451,-0.0338 1.709745,0.0223 1.669543,0.12475 -0.0402,0.10241 -1.535674,3.70501 -3.323273,8.00577 l -3.250175,7.81956 h -1.592236 -1.592234 z m 74.324588,2.24714 v -5.69716 l 1.21006,0.14664 c 1.46153,0.17712 1.52573,0.20983 1.52573,0.77753 0,0.44615 0.002,0.44599 0.4507,-0.0356 1.15577,-1.24058 3.89241,-1.42194 5.29287,-0.35076 0.35853,0.27422 0.34842,0.34723 -0.20402,1.47364 -0.43124,0.87928 -0.66436,1.14926 -0.90333,1.04616 -1.16864,-0.50417 -1.93443,-0.58227 -2.78009,-0.28354 -1.5887,0.56123 -1.74081,0.98362 -1.82126,5.05756 l -0.0703,3.56272 h -1.35016 -1.35016 z m 9.89093,0.0152 v -5.68203 h 1.3679 1.36789 v 5.68203 5.68202 h -1.36789 -1.3679 z m 18.5192,0.10522 v -5.5768 h 1.26267 c 1.1825,0 1.26267,0.0312 1.26267,0.49103 0,0.76821 0.16982,0.77951 1.28607,0.0856 2.46434,-1.53192 5.40373,-0.74085 6.77582,1.82355 0.41854,0.78225 0.46742,1.22557 0.53011,4.80756 l 0.0691,3.94585 h -1.36619 -1.36618 l -0.0724,-3.41974 c -0.0831,-3.92455 -0.29141,-4.59428 -1.5987,-5.1405 -1.41677,-0.59196 -2.95544,0.002 -3.67851,1.42006 -0.30262,0.59348 -0.36801,1.29139 -0.36828,3.93089 l -3.2e-4,3.20928 h -1.3679 -1.36789 v -5.5768 z m 41.62523,-2.36752 -3.29261,-7.94431 1.49025,-0.0625 c 0.81964,-0.0344 1.60077,-0.0201 1.73584,0.0317 0.13507,0.0518 1.27313,2.75524 2.52901,6.00757 1.25589,3.25234 2.34467,5.91334 2.41952,5.91334 0.0748,0 1.17742,-2.67529 2.45017,-5.94508 l 2.31407,-5.94508 1.74264,-0.0615 c 0.95845,-0.0338 1.70975,0.0223 1.66955,0.12475 -0.0402,0.10241 -1.53568,3.70501 -3.32328,8.00577 l -3.25017,7.81956 h -1.59619 -1.59618 z m 52.44385,2.36751 v -5.5768 h 1.26267 c 1.1984,0 1.26267,0.0261 1.26267,0.51369 0,0.57562 0.31481,0.88045 0.53735,0.52034 0.0801,-0.12953 0.63113,-0.4616 1.2246,-0.73794 2.46411,-1.14733 5.00311,-0.29223 6.30682,2.12403 0.41041,0.76066 0.46083,1.22202 0.52323,4.78763 l 0.0691,3.94585 h -1.36617 -1.36619 l -0.0724,-3.41974 c -0.0831,-3.92455 -0.2914,-4.59427 -1.59869,-5.1405 -1.41676,-0.59196 -2.95545,0.002 -3.6785,1.42006 -0.30264,0.59348 -0.36802,1.2914 -0.36828,3.93089 v 3.20929 h -1.36789 -1.3679 v -5.5768 z m -112.28217,-7.77691 c -1.04096,-1.04096 -0.40809,-2.72431 1.02421,-2.72431 1.34373,0 2.12287,1.21525 1.52294,2.37539 -0.5269,1.01892 -1.71447,1.1816 -2.54715,0.34892 z m -67.189442,-1.37726 0.908718,-1.68335 1.630951,-2.1e-4 c 0.897024,-1.1e-4 1.630952,0.0569 1.630952,0.1267 0,0.0698 -0.544528,0.82304 -1.210061,1.67387 l -1.210061,1.54698 -1.329609,0.01 -1.32961,0.01 0.90872,-1.68336 z m 25.554266,0.57852 c 1.11933,-2.22164 1.1721,-2.26229 2.93712,-2.26229 0.86021,0 1.56402,0.0571 1.56402,0.12691 0,0.0698 -0.54453,0.82304 -1.21007,1.67387 l -1.21006,1.54698 -1.31883,0.01 -1.31882,0.01 0.55664,-1.10484 z m 10.01186,-16.16332 c -1.48368,-0.26431 -3.16806,-1.0814 -4.21667,-2.04551 l -0.85257,-0.78386 1.01282,-1.41143 1.01281,-1.41143 0.82907,0.60971 c 0.9785,0.71959 3.723166,1.68703 4.786196,1.68703 1.70794,0 3.30803,-1.23725 2.97147,-2.29766 -0.26273,-0.82779 -0.90167,-1.11442 -3.13184,-1.40497 -4.605716,-0.60003 -6.605136,-1.94759 -6.825086,-4.59994 -0.11707,-1.41175 0.23116,-2.47884 1.13567,-3.48002 2.38203,-2.63662 8.585316,-2.81488 11.730476,-0.33709 0.45234,0.35635 0.41082,0.44841 -0.88255,1.95687 l -0.93973,1.09601 -0.61406,-0.43725 c -2.46114,-1.75248 -6.905406,-1.07402 -6.390966,0.97566 0.18944,0.75479 1.082256,1.12456 3.316186,1.37342 4.61767,0.51441 6.4034,1.7855 6.65421,4.7365 0.1466,1.72491 -0.26017,2.79596 -1.53272,4.03575 -0.80268,0.78201 -1.43829,1.1894 -2.24342,1.43787 -1.36348,0.42079 -4.29412,0.57204 -5.819296,0.30034 z m 38.299006,0.01 c -3.96149,-0.83668 -6.35046,-4.04234 -6.35046,-8.52141 0,-4.48646 2.27887,-7.57702 6.28274,-8.52049 1.48823,-0.35068 3.88135,-0.18297 5.10012,0.35743 0.5312,0.23553 1.31248,0.7749 1.73618,1.19859 l 0.77035,0.77036 v -1.05924 -1.05924 h 1.99924 1.99923 v 8.20737 8.20737 h -1.99923 -1.99924 v -1.06721 -1.06721 l -0.70702,0.74966 c -1.44027,1.52713 -4.41892,2.31367 -6.83191,1.80403 z m 4.8354,-4.23077 c 3.36794,-1.68741 3.30923,-7.11052 -0.0958,-8.84764 -1.20812,-0.61633 -3.15151,-0.60152 -4.46439,0.034 -3.11005,1.50555 -3.42851,6.62346 -0.53145,8.54065 1.43297,0.94829 3.52036,1.06019 5.09163,0.27295 z m 60.19222,4.23077 c -4.19995,-0.88704 -6.56629,-4.32713 -6.29592,-9.15274 0.23075,-4.11853 2.07177,-6.61569 5.68692,-7.71376 2.76027,-0.8384 5.71068,-0.28627 7.37758,1.38062 l 0.77035,0.77036 v -1.05924 -1.05924 h 1.99923 1.99924 v 8.21527 8.21526 l -1.94662,-0.0605 -1.94662,-0.0605 -0.10523,-1.02059 -0.10522,-1.02058 -0.46808,0.63644 c -0.73067,0.9935 -2.84886,1.93167 -4.59447,2.03495 -0.80369,0.0476 -1.87071,-3e-5 -2.37116,-0.10573 z m 4.8354,-4.23077 c 3.3685,-1.68769 3.30919,-7.11054 -0.0968,-8.84813 -1.95775,-0.99877 -4.80975,-0.36715 -6.0456,1.3389 -1.16321,1.60576 -1.24222,4.27329 -0.1776,5.99589 1.1827,1.91364 4.11807,2.61653 6.31996,1.51334 z M 77.930815,247.647 c -2.612225,-0.73236 -4.633671,-2.44625 -5.529549,-4.68822 -0.401637,-1.00511 -0.479466,-1.59272 -0.479466,-3.62 0,-2.02728 0.07783,-2.61489 0.479466,-3.62 0.700284,-1.7525 2.066744,-3.16126 3.987075,-4.11053 1.574165,-0.77814 1.647315,-0.79251 4.034576,-0.79251 3.999757,0 5.989447,1.05105 7.463527,3.94256 0.76829,1.50706 0.82986,1.76312 0.92198,3.83425 l 0.0987,2.21936 h -6.446168 c -4.75673,0 -6.446169,0.0641 -6.446169,0.24456 0,0.13452 0.236625,0.64834 0.525834,1.14184 0.387034,0.66042 0.829885,1.04602 1.677717,1.46083 1.023694,0.50085 1.345743,0.55528 2.893903,0.48912 1.386021,-0.0592 1.989153,-0.19581 2.951323,-0.66828 l 1.20931,-0.59384 1.26887,1.10363 c 0.69787,0.60699 1.23531,1.20567 1.19429,1.33039 -0.15582,0.47383 -1.85089,1.56366 -3.1295,2.01209 -1.74877,0.61332 -5.054804,0.7692 -6.675719,0.31476 z m 6.922679,-10.42105 c 0,-0.66977 -0.92058,-1.91727 -1.71325,-2.32166 -2.414376,-1.23172 -5.496639,-0.46702 -6.667721,1.65424 l -0.489271,0.88625 h 4.435122 c 2.92973,0 4.43512,-0.0743 4.43512,-0.21883 z m 36.195236,10.33403 c -1.72493,-0.52471 -2.96736,-1.7507 -3.46195,-3.41618 -0.24483,-0.82443 -0.3247,-2.11705 -0.3247,-5.25488 v -4.16149 l -1.52573,-0.0618 -1.52573,-0.0618 -0.0611,-1.73618 -0.0611,-1.73617 h 1.58685 1.58686 v -2.08596 -2.08595 l 0.78917,-0.11757 c 0.43404,-0.0647 1.33369,-0.1786 1.99923,-0.25319 l 1.21006,-0.13563 v 2.33915 2.33915 h 2.3149 2.3149 v 1.78878 1.78879 h -2.3149 -2.3149 v 3.68955 c 0,3.92739 0.18492,4.89543 1.02057,5.34266 0.52699,0.28204 1.93045,0.29516 2.64182,0.0247 0.52145,-0.19826 0.54475,-0.16581 1.06592,1.48398 0.29305,0.92767 0.53282,1.72546 0.53282,1.77288 0,0.0474 -0.49069,0.23192 -1.09042,0.41002 -1.13471,0.33697 -3.47006,0.40475 -4.38252,0.1272 z m 39.24502,-0.16986 c -2.08936,-0.74741 -3.40374,-2.18683 -4.13123,-4.52425 -0.33444,-1.07457 -0.38894,-1.98427 -0.38894,-6.49207 v -5.24238 h 1.99923 1.99923 v 4.5916 c 0,5.32885 0.18704,6.33875 1.36567,7.3736 1.87143,1.64314 5.10176,0.9303 6.23748,-1.37644 0.47331,-0.96132 0.50244,-1.25998 0.56583,-5.80113 l 0.0668,-4.78763 h 1.98501 1.985 v 8.20737 8.20737 h -1.89401 -1.89401 v -0.91193 c 0,-0.50156 -0.061,-0.97291 -0.1355,-1.04744 -0.0745,-0.0745 -0.4722,0.16011 -0.8837,0.52142 -1.71151,1.50272 -4.70151,2.06008 -6.8769,1.28191 z m 89.33709,0.16986 c -1.72493,-0.52471 -2.96736,-1.7507 -3.46195,-3.41618 -0.24483,-0.82443 -0.32469,-2.11705 -0.32469,-5.25488 v -4.16149 l -1.52573,-0.0618 -1.52573,-0.0618 -0.0611,-1.73618 -0.0611,-1.73617 h 1.58686 1.58685 v -2.08596 -2.08595 l 0.78917,-0.11299 c 0.43404,-0.0621 1.33369,-0.17198 1.99923,-0.24408 l 1.21006,-0.1311 v 2.33004 2.33004 h 2.3149 2.3149 v 1.78878 1.78879 h -2.3149 -2.3149 v 3.68955 c 0,3.92739 0.18492,4.89543 1.02057,5.34266 0.52717,0.28213 1.93052,0.29513 2.6424,0.0245 0.51799,-0.19694 0.5464,-0.16138 0.96666,1.21006 0.23816,0.77713 0.48242,1.57361 0.54284,1.76995 0.22568,0.73341 -3.69893,1.32695 -5.38429,0.81429 z M 46.552436,235.85321 V 224.1603 l 6.786863,0.0695 c 6.509254,0.0667 6.83633,0.0893 7.996221,0.55417 1.687086,0.67614 3.310562,2.21758 4.071731,3.86598 0.546808,1.18417 0.611087,1.54628 0.608589,3.42846 -0.0024,1.8232 -0.0761,2.26158 -0.551327,3.28011 -0.301695,0.6466 -0.906317,1.53343 -1.343601,1.97071 -0.736527,0.73653 -2.612494,1.79228 -3.193159,1.79705 -0.706287,0.006 -0.210324,0.72026 2.981156,4.29457 1.91269,2.14213 3.477618,3.94664 3.477618,4.01004 0,0.0634 -1.20743,0.11482 -2.683178,0.1143 l -2.683179,-9.7e-4 -3.424259,-3.89227 -3.42426,-3.89228 H 53.07172 50.971789 v 3.89324 3.89324 h -2.209677 -2.209676 z m 12.899825,-0.37634 c 2.757249,-1.15205 2.973507,-5.32617 0.345411,-6.66692 -0.723735,-0.36922 -1.248581,-0.41435 -4.819037,-0.41435 h -4.006846 v 3.68279 3.6828 h 3.899998 c 2.799488,0 4.092018,-0.0802 4.580474,-0.28432 z m 119.891199,3.86189 v -8.20737 h 1.89152 1.89152 l 0.13524,0.84572 0.13523,0.84572 0.69827,-0.71898 c 1.04626,-1.0773 2.27332,-1.46783 4.24123,-1.34983 1.22078,0.0732 1.91412,0.24079 2.73932,0.66213 0.60766,0.31026 1.10484,0.65932 1.10484,0.77568 0,0.11637 -0.38257,0.97247 -0.85016,1.90245 l -0.85016,1.69088 -0.78079,-0.48549 c -0.62147,-0.38642 -1.08139,-0.48549 -2.25391,-0.48549 -1.79604,0 -2.82624,0.54342 -3.5311,1.86261 -0.43738,0.8186 -0.47091,1.18561 -0.53626,5.87126 l -0.0697,4.99808 h -1.98254 -1.98254 z m 42.08907,-0.10522 v -8.3126 h 1.76424 c 1.93165,0 2.01364,0.0619 2.02091,1.52573 0.002,0.3183 0.0603,0.57873 0.13042,0.57873 0.0702,0 0.48877,-0.2861 0.93027,-0.63577 1.38643,-1.09807 2.65273,-1.54078 4.41539,-1.54365 3.40371,-0.006 5.95378,2.16745 6.70644,5.71474 0.13677,0.64458 0.23663,3.1978 0.23663,6.0503 v 4.93511 h -1.99923 -1.99924 v -4.409 c 0,-2.43099 -0.10459,-4.8967 -0.23314,-5.49609 -0.40239,-1.87628 -1.98643,-3.15244 -3.89496,-3.1379 -0.83159,0.006 -2.1735,0.65938 -2.86103,1.39233 -1.06903,1.13965 -1.21824,2.00279 -1.21824,7.04732 v 4.60334 h -1.99923 -1.99923 z M 58.713903,210.95644 c -4.367368,-1.21886 -8.260355,-4.26611 -9.445356,-7.39339 -0.499461,-1.31811 -0.582281,-3.59672 -0.18443,-5.07422 1.204536,-4.47331 6.519764,-9.98466 12.515163,-12.97696 2.2432,-1.11958 5.097418,-2.10992 7.013864,-2.43362 l 1.562761,-0.26396 0.397049,-1.25273 c 0.218377,-0.689 0.921589,-3.05204 1.562692,-5.25119 0.641103,-2.19915 1.207493,-4.12332 1.258646,-4.27593 0.0965,-0.2879 -0.06806,-0.1653 -2.68752,2.00226 -5.124938,4.24081 -10.869631,6.94672 -15.210408,7.16452 -6.981588,0.35029 -12.427621,-3.2134 -15.796436,-10.33663 -1.111874,-2.35101 -1.798229,-4.67525 -2.43498,-8.24567 -0.425401,-2.38534 -0.485467,-3.4023 -0.484025,-8.19487 0.0018,-5.97662 0.224416,-8.23044 1.366,-13.82962 2.312976,-11.34456 6.865552,-21.58612 12.936071,-29.10123 1.734142,-2.14682 5.475082,-5.8528 7.359605,-7.29083 4.825479,-3.68222 9.926073,-5.442969 15.758358,-5.439879 9.443637,0.005 16.879727,4.258609 20.335047,11.632079 1.31129,2.79821 1.75893,4.9661 1.74775,8.46422 -0.01,3.13369 -0.23891,4.84317 -0.94396,7.04992 -1.47501,4.61663 -4.34041,7.47448 -8.3453,8.32329 -3.47589,0.73669 -7.6263,-0.11102 -9.293679,-1.89821 l -0.523649,-0.56128 0.799713,-1.40617 c 1.611616,-2.83379 4.127478,-8.19877 4.85359,-10.35011 1.000205,-2.96341 1.391685,-4.93969 1.391685,-7.02548 0,-2.1014 -0.41416,-3.60173 -1.320677,-4.78425 -1.66268,-2.1689 -5.290533,-2.66023 -8.894374,-1.20457 -4.836839,1.95369 -10.566713,8.51749 -14.79726,16.95085 -4.555162,9.08047 -7.511765,19.1894 -7.988826,27.31459 -0.415878,7.08318 0.715502,11.89081 3.474337,14.76365 1.263998,1.31624 2.46663,1.91635 4.204381,2.09798 3.810978,0.39832 10.330115,-3.26143 16.805481,-9.43436 2.195772,-2.09321 1.96044,-1.49549 3.04853,-7.74294 1.105935,-6.34989 2.062641,-9.19878 3.568899,-10.62749 0.621237,-0.58925 0.773671,-0.63133 2.286869,-0.63133 1.40222,0 1.808,0.0919 3.00329,0.6805 1.51378,0.74538 3.11211,2.27498 4.04776,3.8737 0.7587,1.29638 1.26252,3.73392 1.0813,5.23151 -0.47189,3.89964 -3.49385,15.37828 -7.44688,28.28624 -0.81212,2.65187 -1.42751,4.90101 -1.36751,4.99808 0.06,0.0971 0.79007,0.17979 1.62239,0.18383 4.34875,0.0211 7.05227,1.2396 9.09835,4.10074 1.50472,2.10411 2.46899,5.26016 1.99114,6.51699 -0.27826,0.73187 -0.67681,0.67147 -3.32795,-0.5044 -2.87095,-1.27337 -5.77692,-1.95918 -11.193701,-2.64174 l -0.947004,-0.11933 -0.709321,1.84439 c -1.161223,3.01944 -3.428711,7.40401 -5.09519,9.85241 -2.783489,4.08952 -6.811013,7.63388 -9.903546,8.71546 -1.895439,0.66291 -4.865352,0.77081 -6.748739,0.24518 z m 1.563782,-6.95663 c 1.261561,-0.80006 2.985321,-2.90522 4.114939,-5.02542 1.283732,-2.40946 3.040772,-7.07391 2.694549,-7.15327 -0.810105,-0.18569 -5.034533,1.87878 -6.6006,3.22571 -2.017704,1.73536 -3.609109,4.81788 -3.617318,7.00667 -0.0045,1.19436 0.05835,1.39483 0.610153,1.94662 0.792375,0.79238 1.548467,0.7923 2.798277,-2.1e-4 z m 71.610345,2.8393 c -0.89859,-0.33327 -1.99923,-1.39033 -1.99923,-1.92007 0,-0.17651 0.85095,-4.46021 1.89101,-9.51933 1.04006,-5.05913 2.84546,-14.12283 4.012,-20.14157 1.16654,-6.01873 2.17474,-11.12817 2.24045,-11.35429 0.0891,-0.30648 -0.14207,-0.19514 -0.90792,0.43734 -2.13894,1.76643 -4.49251,3.10524 -7.0251,3.99615 -1.28801,0.4531 -1.41496,0.55863 -2.17385,1.80699 -3.60798,5.93509 -9.53109,10.87844 -14.58249,12.17037 -2.84399,0.72737 -6.95119,0.41448 -9.81053,-0.74738 -3.875116,-1.5746 -7.641816,-5.50435 -9.485556,-9.89618 -2.09699,-4.99505 -2.66823,-13.82054 -1.18572,-18.319 0.59967,-1.8196 1.64152,-3.44414 2.51467,-3.92109 0.92445,-0.50497 2.67322,-0.40631 3.97877,0.22446 0.764136,0.36919 0.879136,0.3831 0.767756,0.0929 -0.668446,-1.74196 -0.772786,-5.41519 -0.221706,-7.80509 1.670436,-7.2442 7.798006,-13.45147 14.669436,-14.86024 10.25779,-2.10303 19.09885,5.17181 20.88233,17.18295 0.72177,4.86085 0.0696,10.45147 -1.7794,15.25318 -0.32486,0.84365 -0.52791,1.53321 -0.45123,1.53235 0.0767,-8.4e-4 0.68251,-0.43354 1.34627,-0.96151 1.60914,-1.27992 3.64401,-3.86093 4.85551,-6.15869 0.94967,-1.80115 1.04669,-2.15938 2.55207,-9.42328 2.24571,-10.83624 2.66892,-12.76461 2.89651,-13.19818 0.56561,-1.07754 3.2752,-1.29166 5.76569,-0.45563 3.0291,1.01683 4.08358,2.18109 4.08358,4.50871 v 1.29478 l 1.84242,-1.84955 c 4.2585,-4.27496 9.58267,-6.79764 13.79231,-6.53501 2.32335,0.14495 3.64173,0.72615 4.98759,2.19873 2.46575,2.69793 3.73317,7.36171 3.9356,14.48212 0.17858,6.28118 -0.68276,12.26127 -2.58699,17.9609 -3.01314,9.01877 -8.13303,15.02606 -14.07923,16.5195 -4.97536,1.24961 -9.27228,0.12097 -14.04378,-3.68876 -0.31641,-0.25262 -0.61048,-0.41831 -0.65351,-0.36819 -0.13811,0.1609 -2.18436,10.56425 -3.81969,19.41972 -0.87307,4.72773 -1.6724,8.7525 -1.77631,8.94393 -0.53568,0.98694 -2.14464,2.00868 -4.42392,2.80932 -1.57949,0.55484 -4.86459,0.71269 -6.00781,0.28868 z m -18.35041,-32.2005 c 0.44006,-0.15697 1.19077,-0.55529 1.66825,-0.88516 0.98585,-0.68108 2.94446,-2.9528 3.54251,-4.10884 l 0.40005,-0.77328 -1.41668,-0.46636 c -3.27508,-1.07813 -5.57801,-2.56307 -9.54509,-6.15472 l -2.23593,-2.02434 -0.12926,0.78186 c -0.22883,1.38417 -0.12784,6.20506 0.16428,7.84238 0.67709,3.79504 2.87419,6.00908 6.01519,6.06155 0.40511,0.007 1.09661,-0.11613 1.53668,-0.27309 z m 45.46073,-4.24061 c 2.68607,-0.91524 5.88597,-6.85689 7.80946,-14.50083 1.08271,-4.3027 1.43727,-6.92928 1.46301,-10.83794 0.0283,-4.29973 -0.26268,-5.61254 -1.54225,-6.95765 -2.71366,-2.85264 -6.44385,0.2399 -9.84806,8.16463 -2.10698,4.90485 -4.70312,13.58949 -5.98545,20.02255 l -0.2676,1.34244 0.73166,0.62394 c 2.54919,2.17387 5.29102,2.94297 7.63923,2.14286 z m -36.24252,-8.02963 c 0.81992,-2.1355 1.95169,-7.58567 2.28335,-10.99578 0.38419,-3.9502 -0.16748,-9.24063 -1.24995,-11.98688 -0.92485,-2.34637 -3.00471,-4.55364 -4.87668,-5.1754 -2.96274,-0.98407 -6.66411,0.9166 -8.37142,4.29876 -1.01778,2.01621 -1.33655,3.73056 -1.21795,6.55016 0.32063,7.62279 4.79472,14.60397 11.07764,17.28509 1.74701,0.74551 2.07671,0.74887 2.35501,0.024 z m 112.40903,19.84282 c -1.81888,-0.5682 -3.97168,-2.32222 -4.78824,-3.90128 -0.4885,-0.94466 -1.15761,-3.70117 -1.15761,-4.76899 0,-0.50234 -0.071,-0.9079 -0.15783,-0.90124 -0.0868,0.007 -0.63134,0.63088 -1.21006,1.38717 -1.42597,1.86347 -5.24712,5.48994 -6.69786,6.35661 -2.39369,1.42999 -3.6279,1.81514 -5.82364,1.81736 -1.87447,0.002 -2.08114,-0.0424 -3.31178,-0.70979 -2.82851,-1.53393 -4.45827,-4.25443 -5.19743,-8.67586 l -0.12696,-0.7594 -1.73222,1.78113 c -3.32081,3.41458 -6.77228,5.81581 -10.30957,7.17247 -1.80792,0.6934 -2.1156,0.74688 -4.36794,0.75926 -2.32644,0.0128 -2.47908,-0.0142 -3.82955,-0.67836 -4.16502,-2.04821 -6.09521,-7.82627 -5.77962,-17.3014 0.44515,-13.36452 5.18832,-25.31617 12.28522,-30.95582 1.89202,-1.50352 3.64568,-2.3735 5.95322,-2.95336 4.19872,-1.05509 9.16359,0.21862 12.84665,3.29573 l 0.90934,0.75973 0.40279,-1.07978 c 0.28749,-0.77067 0.64453,-1.25489 1.24723,-1.69148 3.07534,-2.22776 10.22987,-2.83649 12.23814,-1.04125 0.57688,0.51567 0.66047,0.72392 0.64584,1.60894 -0.0168,1.01321 -0.15945,1.45711 -3.43278,10.67877 -4.58333,12.91217 -6.57787,21.7837 -5.95106,26.46978 0.30075,2.2484 0.56207,3.13439 1.09236,3.70359 1.49763,1.60752 3.63381,0.12962 6.78071,-4.69116 1.62586,-2.49069 4.78947,-8.80435 4.78947,-9.55843 0,-2.62553 4.74482,-23.02263 9.2318,-39.68579 0.81036,-3.00937 1.90554,-7.22354 2.43374,-9.36482 0.52819,-2.14128 1.11534,-4.19695 1.30472,-4.56816 0.95456,-1.87089 5.54801,-3.39617 9.51343,-3.159 3.20826,0.19189 4.45332,0.8821 4.45332,2.46872 0,0.47552 -0.62041,2.87123 -1.37867,5.3238 -1.77313,5.73502 -7.89014,26.39967 -10.50844,35.49991 -3.72863,12.95929 -4.7035,17.53503 -4.88928,22.94877 -0.12452,3.62814 0.0992,5.26005 0.8272,6.035 0.54756,0.58285 0.99581,0.60062 2.01556,0.0799 2.86124,-1.46105 7.57286,-9.0132 11.39703,-18.26799 1.12729,-2.72814 1.39115,-2.98151 2.82487,-2.71254 0.89898,0.16865 2.07861,1.12762 2.4297,1.97521 0.22282,0.53797 0.0843,0.94331 -1.56494,4.57816 -1.79541,3.95712 -4.60202,9.50991 -6.08513,12.03938 -4.41186,7.52438 -12.15404,12.30087 -17.32173,10.68653 z m -37.69321,-9.4991 c 2.03946,-1.41335 5.1705,-6.6263 7.44512,-12.39557 2.0048,-5.08493 5.5726,-16.49724 5.5726,-17.82507 0,-0.46867 -2.03523,-2.08954 -3.63459,-2.89462 -1.45743,-0.73363 -3.18013,-0.99595 -4.24109,-0.6458 -1.04567,0.3451 -2.914,2.11176 -4.11406,3.89016 -4.01421,5.9488 -6.79894,15.38927 -6.83092,23.15736 -0.0182,4.43235 0.52684,6.05388 2.37229,7.05716 1.03674,0.56362 2.30477,0.43661 3.43065,-0.34362 z"
       id="path3724"
       inkscape:connector-curvature="0" />
  </g>
</svg>
