<svg xmlns="http://www.w3.org/2000/svg" width="297mm" height="210mm" viewBox="0 0 297 210"><path d="M75.74 284.912c-1.92-.685-3.513-2.57-3.513-4.157 0-.584.014-.59 1.315-.588l1.315.002.356.846c.696 1.659 3.395 2.182 4.671.905.99-.989.916-2.63-.15-3.328-.279-.183-1.273-.42-2.209-.527-2.47-.282-3.783-1.07-4.737-2.845-.651-1.211-.652-4.257-.002-5.475q1.478-2.768 4.702-3c.95-.068 1.607.002 2.145.227l.776.324.553-.725.552-.725 1.014.794 1.013.793-.585.801-.585.802.536.958c.428.765.533 1.238.526 2.355-.01 1.658-.382 2.612-1.4 3.591l-.747.72.701.477c1.998 1.358 1.858 5.073-.256 6.822-1.403 1.16-4.173 1.601-5.99.953zm3.418-9.761c1.982-1.063 1.98-4.464-.003-5.557a2.4 2.4 0 0 0-1.544-.294c-2.81.348-3.6 4.152-1.197 5.758.865.577 1.783.608 2.744.093m140.948 9.761c-1.921-.685-3.514-2.57-3.514-4.157 0-.584.014-.59 1.326-.59 1.322 0 1.326.002 1.59.73 1.05 2.907 6.126 1.852 5.372-1.116-.274-1.08-.975-1.484-2.967-1.711-2.493-.285-3.803-1.068-4.76-2.848-.65-1.21-.652-4.257-.002-5.475q1.478-2.768 4.703-3c.95-.067 1.606.002 2.144.227l.776.324.553-.725.553-.725 1.013.794 1.013.793-.584.801-.585.802.535.958c.428.766.534 1.239.527 2.355-.011 1.667-.404 2.677-1.411 3.627l-.741.699.638.404c1.391.88 1.906 3.453 1.062 5.31-1.018 2.242-4.565 3.478-7.24 2.523zm3.418-9.761c1.387-.744 1.924-2.909 1.102-4.443-.447-.832-1.535-1.486-2.475-1.486-1.404 0-2.822 1.586-2.822 3.157s1.418 3.156 2.822 3.156c.36 0 .979-.173 1.373-.384m-113.4 3.18c-1.285-.454-2.61-1.837-3.062-3.195-.474-1.43-.377-4.192.189-5.35 1.453-2.974 5.702-4.037 8.015-2.006l.733.644v-1.306h2.736v11.153H116v-1.306l-.73.642c-1.244 1.092-3.287 1.38-5.144.724m4.34-2.787c.896-.547 1.385-1.553 1.385-2.85 0-2.043-1.16-3.26-3.111-3.26-2.026 0-3.157 1.168-3.157 3.26 0 1.462.373 2.205 1.432 2.85.898.548 2.552.548 3.45 0m118.14 2.787c-1.286-.454-2.611-1.837-3.062-3.195-.475-1.43-.378-4.192.188-5.35 1.453-2.974 5.702-4.037 8.015-2.006l.734.644v-1.306h2.735v11.153h-2.735v-1.306l-.731.642c-1.244 1.092-3.287 1.38-5.144.724m4.339-2.787c.896-.547 1.385-1.553 1.385-2.85 0-2.053-1.159-3.26-3.133-3.26-2.052-.002-3.356 1.457-3.161 3.54.12 1.3.516 1.996 1.458 2.57.898.548 2.552.548 3.45 0m-173.988 2.738c-2.403-.729-3.986-2.979-3.986-5.663 0-3.51 2.444-5.922 6.002-5.922 3.415 0 5.515 2.005 5.628 5.375l.05 1.464-4.367.057c-3.49.046-4.367.114-4.367.34 0 .482.878 1.429 1.607 1.733 1.242.519 3.424.28 4.298-.472.283-.244.451-.157 1.224.63l.896.913-.655.552c-.36.303-1.142.695-1.736.872-1.129.335-3.668.402-4.594.121m4.852-7.337c0-.21-.28-.65-.621-.977-.732-.701-2.252-.942-3.45-.546-.709.234-1.821 1.279-1.821 1.71 0 .11 1.286.194 2.946.194 2.705 0 2.946-.03 2.946-.381m20.534 7.124c-2.146-.863-3.488-2.96-3.488-5.45 0-3.51 2.445-5.922 6.003-5.922 3.415 0 5.514 2.005 5.628 5.375l.05 1.464-4.368.057c-4.751.062-4.797.076-3.91 1.203.97 1.233 3.155 1.533 4.864.668l.972-.492.895.911c.869.886.883.921.484 1.241-1.045.839-2.303 1.226-4.199 1.294-1.512.055-2.103-.016-2.931-.349m5.351-7.124c0-.21-.28-.65-.621-.977-.732-.701-2.252-.942-3.451-.546-.708.234-1.82 1.279-1.82 1.71 0 .11 1.285.194 2.946.194 2.705 0 2.946-.03 2.946-.381m7.363 7.063c-1.563-.792-1.774-1.39-1.857-5.261l-.071-3.315h-2.068v-2.314h2.105v-1.474c0-1.296.047-1.473.391-1.473.216 0 .831-.06 1.368-.134l.977-.133v3.214h3.156v2.314H101.9v2.621c0 3.572.29 4.104 2.076 3.803.787-.133.799-.125 1.058.741.145.482.31.997.366 1.145.143.373-1.013.74-2.33.74a4.5 4.5 0 0 1-2.015-.474m38.454.124c-2.28-.788-3.728-2.929-3.728-5.513 0-3.51 2.445-5.922 6.003-5.922 3.415 0 5.514 2.005 5.628 5.375l.049 1.464-4.367.057c-4.725.062-4.792.081-3.943 1.16.963 1.226 3.567 1.536 5.133.612l.67-.396.928.799c.898.774.915.811.554 1.21-1.131 1.25-4.855 1.87-6.927 1.154m5.111-7.187c0-.21-.28-.65-.622-.977-.731-.701-2.251-.942-3.45-.546-.708.234-1.82 1.279-1.82 1.71 0 .11 1.285.194 2.946.194 2.704 0 2.946-.03 2.946-.381m26.593 7.116c-.932-.304-1.5-.652-2.04-1.251-1.764-1.952-1.502-5.083.527-6.317l.61-.37-.552-.362c-.303-.199-.73-.756-.95-1.24-1.025-2.258.046-4.763 2.516-5.882.766-.346 1.412-.442 3.074-.453 2.473-.016 3.657.347 4.726 1.45.648.669 1.362 2.504 1.129 2.903-.051.087-.703.158-1.448.158-1.094 0-1.356-.064-1.356-.332 0-.672-1.127-1.504-2.244-1.658-2.629-.361-4.59 1.283-3.642 3.054.524.977 1.302 1.137 5.94 1.214l4.366.073v1.14c0 1.116-.012 1.138-.61 1.138-.588 0-.617.048-.752 1.211-.168 1.444.098 2.28.831 2.614.492.224.53.347.53 1.68 0 1.307-.039 1.44-.427 1.44-.817 0-1.858-.595-2.2-1.259l-.343-.66-.428.544c-.786.999-1.985 1.446-4.072 1.52-1.46.05-2.19-.03-3.185-.355m4.594-2.563c.454-.136 1.057-.522 1.34-.858.427-.508.513-.836.513-1.962v-1.352l-2.052.001c-2.516.001-3.443.242-4.143 1.074-1.686 2.004 1.175 4.046 4.342 3.097zm31.254 2.634c-2.28-.788-3.727-2.929-3.727-5.513 0-3.51 2.445-5.922 6.003-5.922 3.415 0 5.514 2.005 5.628 5.375l.049 1.464-4.367.057c-4.725.062-4.792.081-3.943 1.16.963 1.226 3.567 1.536 5.133.612l.67-.396.916.812c.875.777.9.83.554 1.21-1.12 1.238-4.854 1.854-6.916 1.141m5.112-7.187c0-.21-.28-.65-.622-.977-.731-.701-2.251-.942-3.45-.546-.708.234-1.82 1.279-1.82 1.71 0 .11 1.285.194 2.946.194 2.704 0 2.946-.03 2.946-.381m-165.447-.618-3.295-7.944 1.488-.063c.819-.034 1.6-.02 1.734.032.135.052 1.274 2.755 2.53 6.007 1.255 3.253 2.344 5.914 2.419 5.914s1.177-2.676 2.45-5.945l2.314-5.946 1.743-.061c.958-.034 1.71.022 1.67.125-.04.102-1.536 3.705-3.324 8.005l-3.25 7.82H50.02zm74.324 2.247v-5.697l1.21.146c1.462.178 1.526.21 1.526.778 0 .446.002.446.45-.036 1.156-1.24 3.893-1.422 5.293-.35.359.274.349.347-.204 1.473-.43.88-.664 1.15-.903 1.046-1.169-.504-1.934-.582-2.78-.283-1.589.561-1.74.984-1.821 5.057l-.07 3.563h-2.7zm9.891.015v-5.682h2.736v11.364h-2.736zm18.52.105v-5.576h1.262c1.182 0 1.263.03 1.263.49 0 .769.17.78 1.286.086 2.464-1.532 5.403-.74 6.775 1.824.419.782.468 1.225.53 4.807l.07 3.946h-2.733l-.072-3.42c-.083-3.924-.292-4.594-1.599-5.14-1.417-.592-2.955.002-3.678 1.42-.303.593-.368 1.291-.369 3.93v3.21h-2.736zm41.624-2.367-3.292-7.944 1.49-.063c.82-.034 1.6-.02 1.736.032s1.273 2.755 2.529 6.007c1.256 3.253 2.345 5.914 2.42 5.914s1.177-2.676 2.45-5.945l2.314-5.945 1.742-.062c.959-.034 1.71.022 1.67.125-.04.102-1.536 3.705-3.323 8.006l-3.25 7.82h-3.193zm52.444 2.367v-5.576h1.263c1.198 0 1.263.026 1.263.513 0 .576.314.88.537.52.08-.129.631-.461 1.225-.737 2.464-1.148 5.003-.293 6.306 2.124.41.76.461 1.222.524 4.787l.069 3.946h-2.733l-.072-3.42c-.083-3.924-.291-4.594-1.599-5.14-1.416-.592-2.955.002-3.678 1.42-.303.593-.368 1.291-.368 3.93v3.21h-2.736zm-112.282-7.777c-1.04-1.04-.408-2.724 1.024-2.724 1.344 0 2.123 1.215 1.523 2.376-.527 1.018-1.714 1.181-2.547.348m-67.19-1.377.91-1.683h1.63c.897 0 1.631.057 1.631.126 0 .07-.544.823-1.21 1.674l-1.21 1.547-1.33.01-1.329.01zm25.555.579c1.12-2.222 1.172-2.263 2.937-2.263.86 0 1.564.058 1.564.127 0 .07-.544.823-1.21 1.674l-1.21 1.547-1.319.01-1.319.01zm10.012-16.164c-1.484-.264-3.168-1.081-4.217-2.045l-.852-.784 1.012-1.411 1.013-1.412.83.61c.978.72 3.722 1.687 4.785 1.687 1.708 0 3.309-1.237 2.972-2.298-.263-.828-.902-1.114-3.132-1.405-4.606-.6-6.605-1.947-6.825-4.6-.117-1.411.231-2.478 1.136-3.48 2.382-2.636 8.585-2.815 11.73-.337.453.357.411.449-.882 1.957l-.94 1.096-.614-.437c-2.461-1.753-6.906-1.074-6.391.976.19.754 1.082 1.124 3.316 1.373 4.618.514 6.403 1.785 6.654 4.736.147 1.725-.26 2.796-1.532 4.036-.803.782-1.439 1.19-2.244 1.438-1.363.42-4.294.572-5.82.3m38.299.01c-3.962-.836-6.35-4.042-6.35-8.521 0-4.486 2.278-7.577 6.282-8.52 1.488-.351 3.881-.183 5.1.357.531.235 1.313.775 1.736 1.199l.77.77v-2.119h4v16.415h-4v-2.134l-.706.75c-1.44 1.527-4.42 2.313-6.832 1.803m4.835-4.23c3.368-1.688 3.31-7.11-.096-8.848-1.208-.616-3.151-.602-4.464.034-3.11 1.506-3.428 6.623-.531 8.54 1.433.949 3.52 1.06 5.091.274m60.192 4.23c-4.2-.887-6.566-4.327-6.295-9.152.23-4.119 2.071-6.616 5.686-7.714 2.76-.838 5.711-.286 7.378 1.38l.77.77v-2.118h3.999v16.431l-1.947-.06-1.946-.061-.106-1.02-.105-1.021-.468.636c-.73.994-2.849 1.932-4.594 2.035-.804.048-1.871 0-2.372-.106m4.836-4.23c3.368-1.688 3.309-7.11-.097-8.848-1.958-1-4.81-.368-6.046 1.338-1.163 1.606-1.242 4.274-.177 5.996 1.183 1.914 4.118 2.617 6.32 1.514M77.93 247.647c-2.612-.732-4.634-2.446-5.53-4.688-.401-1.005-.48-1.593-.48-3.62s.079-2.615.48-3.62c.7-1.753 2.067-3.161 3.987-4.11 1.575-.779 1.648-.793 4.035-.793 4 0 5.99 1.05 7.463 3.942.769 1.507.83 1.763.922 3.835l.1 2.219H82.46c-4.757 0-6.446.064-6.446.244 0 .135.236.649.526 1.142.387.66.83 1.046 1.677 1.461 1.024.501 1.346.555 2.894.49 1.386-.06 1.99-.197 2.952-.669l1.209-.594 1.269 1.104c.698.607 1.235 1.205 1.194 1.33-.156.474-1.85 1.564-3.13 2.012-1.748.614-5.054.77-6.675.315m6.922-10.421c0-.67-.92-1.917-1.713-2.322-2.414-1.231-5.496-.467-6.667 1.655l-.49.886h4.435c2.93 0 4.435-.075 4.435-.22m36.196 10.334c-1.725-.525-2.968-1.75-3.462-3.416-.245-.825-.325-2.117-.325-5.255v-4.162l-1.526-.061-1.525-.062-.061-1.736-.062-1.737h3.174v-4.171l.79-.118a70 70 0 0 1 1.999-.253l1.21-.136v4.678h4.629v3.578h-4.629v3.69c0 3.927.185 4.895 1.02 5.342.527.282 1.93.295 2.642.025.521-.198.545-.166 1.066 1.484.293.928.533 1.725.533 1.773s-.491.232-1.09.41c-1.135.337-3.47.405-4.383.127m39.245-.17c-2.09-.747-3.404-2.187-4.131-4.524-.335-1.075-.39-1.984-.39-6.492v-5.243h3.999v4.592c0 5.329.187 6.339 1.366 7.374 1.871 1.643 5.101.93 6.237-1.377.474-.961.503-1.26.566-5.8l.067-4.789h3.97v16.415h-3.788v-.912c0-.501-.061-.973-.136-1.047-.074-.075-.472.16-.883.521-1.712 1.503-4.702 2.06-6.877 1.282m89.337.17c-1.725-.525-2.968-1.75-3.462-3.416-.245-.825-.325-2.117-.325-5.255v-4.162l-1.526-.061-1.525-.062-.061-1.736-.061-1.737h3.173v-4.171l.79-.113a74 74 0 0 1 1.999-.244l1.21-.132v4.66h4.63v3.578h-4.63v3.69c0 3.927.185 4.895 1.02 5.342.527.282 1.93.295 2.643.025.518-.197.546-.162.966 1.21l.543 1.77c.226.733-3.699 1.327-5.384.814M46.552 235.853V224.16l6.787.07c6.51.067 6.837.09 7.997.554 1.687.676 3.31 2.218 4.071 3.866.547 1.184.611 1.546.609 3.428-.003 1.824-.076 2.262-.551 3.28-.302.647-.907 1.534-1.344 1.971-.737.737-2.613 1.793-3.193 1.797-.707.006-.21.72 2.98 4.295 1.914 2.142 3.479 3.946 3.479 4.01s-1.208.115-2.684.114H62.02l-3.424-3.893-3.424-3.892h-4.2v7.786h-4.42zm12.9-.376c2.758-1.152 2.974-5.326.346-6.667-.724-.37-1.249-.414-4.82-.414h-4.006v7.365h3.9c2.8 0 4.092-.08 4.58-.284m119.891 3.862v-8.208h3.783l.136.846.135.846.698-.72c1.047-1.076 2.274-1.467 4.241-1.349 1.221.073 1.915.24 2.74.662.607.31 1.105.66 1.105.776s-.383.972-.85 1.902l-.85 1.691-.781-.485c-.622-.387-1.082-.486-2.254-.486-1.796 0-2.827.544-3.531 1.863-.438.818-.471 1.185-.537 5.871l-.07 4.998h-3.965zm42.09-.105v-8.313h1.764c1.931 0 2.013.062 2.02 1.526.003.318.061.578.131.578s.489-.286.93-.635c1.387-1.098 2.653-1.541 4.416-1.544 3.403-.006 5.954 2.167 6.706 5.715.137.644.237 3.198.237 6.05v4.935h-3.999v-4.409c0-2.43-.104-4.897-.233-5.496-.402-1.876-1.986-3.152-3.895-3.138-.831.006-2.173.66-2.86 1.392-1.07 1.14-1.219 2.003-1.219 7.048v4.603h-3.998zm-162.72-28.278c-4.366-1.218-8.26-4.266-9.444-7.393-.5-1.318-.583-3.597-.185-5.074 1.205-4.473 6.52-9.985 12.515-12.977 2.243-1.12 5.098-2.11 7.014-2.434l1.563-.264.397-1.252c.218-.69.922-3.052 1.563-5.252s1.207-4.123 1.258-4.276c.097-.287-.068-.165-2.687 2.003-5.125 4.24-10.87 6.946-15.21 7.164-6.982.35-12.428-3.213-15.797-10.336-1.112-2.351-1.798-4.676-2.435-8.246-.425-2.385-.486-3.402-.484-8.195.002-5.977.224-8.23 1.366-13.83 2.313-11.344 6.865-21.586 12.936-29.1 1.734-2.148 5.475-5.854 7.36-7.292 4.825-3.682 9.926-5.443 15.758-5.44 9.444.005 16.88 4.26 20.335 11.633 1.311 2.798 1.759 4.966 1.748 8.464-.01 3.133-.24 4.843-.944 7.05-1.475 4.616-4.34 7.474-8.346 8.323-3.475.737-7.626-.111-9.293-1.898l-.524-.561.8-1.407c1.611-2.833 4.127-8.198 4.853-10.35 1-2.963 1.392-4.94 1.392-7.025 0-2.102-.414-3.602-1.32-4.784-1.663-2.17-5.291-2.66-8.895-1.205-4.837 1.954-10.567 8.517-14.797 16.95-4.555 9.081-7.512 19.19-7.989 27.315-.416 7.084.716 11.891 3.474 14.764 1.264 1.316 2.467 1.916 4.205 2.098 3.81.398 10.33-3.261 16.805-9.434 2.196-2.094 1.96-1.496 3.049-7.743 1.106-6.35 2.062-9.2 3.569-10.628.62-.589.773-.631 2.287-.631 1.402 0 1.808.092 3.003.68 1.514.746 3.112 2.275 4.048 3.874.758 1.296 1.262 3.734 1.08 5.232-.471 3.9-3.493 15.378-7.446 28.286-.812 2.652-1.428 4.9-1.368 4.998s.79.18 1.623.184c4.349.02 7.052 1.24 9.098 4.1 1.505 2.105 2.47 5.26 1.991 6.517-.278.732-.676.672-3.328-.504-2.87-1.273-5.777-1.96-11.193-2.642l-.947-.119-.71 1.844c-1.16 3.02-3.428 7.404-5.095 9.853-2.783 4.09-6.81 7.634-9.903 8.715-1.896.663-4.866.771-6.75.245M60.279 204c1.261-.8 2.985-2.905 4.115-5.026 1.283-2.41 3.04-7.074 2.694-7.153-.81-.186-5.034 1.879-6.6 3.226-2.018 1.735-3.61 4.818-3.618 7.007-.004 1.194.059 1.394.61 1.946.793.792 1.549.792 2.799 0m71.61 2.84c-.899-.334-2-1.391-2-1.921 0-.176.852-4.46 1.892-9.52a2214 2214 0 0 0 4.012-20.14c1.166-6.02 2.175-11.129 2.24-11.355.09-.307-.142-.195-.908.437-2.139 1.767-4.492 3.105-7.025 3.996-1.288.453-1.415.559-2.174 1.807-3.608 5.935-9.53 10.879-14.582 12.17-2.844.728-6.951.415-9.81-.747-3.876-1.574-7.642-5.504-9.486-9.896-2.097-4.995-2.668-13.82-1.186-18.319.6-1.82 1.642-3.444 2.515-3.92.924-.506 2.673-.407 3.979.224.764.369.879.383.767.092-.668-1.742-.772-5.415-.221-7.805 1.67-7.244 7.798-13.451 14.669-14.86 10.258-2.103 19.099 5.172 20.882 17.183.722 4.86.07 10.452-1.779 15.253-.325.844-.528 1.533-.451 1.533.076-.001.682-.434 1.346-.962 1.61-1.28 3.644-3.86 4.855-6.159.95-1.8 1.047-2.159 2.553-9.423 2.245-10.836 2.668-12.765 2.896-13.198.566-1.078 3.275-1.292 5.766-.456 3.029 1.017 4.083 2.181 4.083 4.509v1.295l1.843-1.85c4.258-4.275 9.582-6.797 13.792-6.535 2.323.145 3.642.726 4.988 2.199 2.465 2.698 3.733 7.362 3.935 14.482.179 6.281-.682 12.261-2.587 17.961-3.013 9.019-8.133 15.026-14.079 16.52-4.975 1.25-9.272.12-14.044-3.69-.316-.252-.61-.418-.653-.367-.138.16-2.185 10.564-3.82 19.42-.873 4.727-1.672 8.752-1.776 8.943-.536.987-2.145 2.009-4.424 2.81-1.58.554-4.865.712-6.008.288m-18.35-32.201c.44-.157 1.19-.556 1.668-.886.986-.68 2.944-2.952 3.542-4.108l.4-.774-1.416-.466c-3.275-1.078-5.578-2.563-9.545-6.155l-2.236-2.024-.13.782c-.228 1.384-.127 6.205.165 7.842.677 3.795 2.874 6.01 6.015 6.062.405.007 1.097-.116 1.537-.273m45.46-4.241c2.686-.915 5.886-6.857 7.81-14.5 1.083-4.304 1.437-6.93 1.463-10.839.028-4.3-.263-5.612-1.542-6.957-2.714-2.853-6.444.24-9.848 8.164-2.107 4.905-4.704 13.59-5.986 20.023l-.268 1.342.732.624c2.55 2.174 5.291 2.943 7.64 2.143m-36.242-8.03c.82-2.135 1.952-7.585 2.283-10.995.384-3.95-.167-9.241-1.25-11.987-.925-2.347-3.004-4.554-4.876-5.176-2.963-.984-6.665.917-8.372 4.3-1.018 2.015-1.336 3.73-1.218 6.55.32 7.622 4.795 14.603 11.078 17.284 1.747.746 2.077.75 2.355.024m112.409 19.843c-1.819-.568-3.972-2.322-4.788-3.901-.489-.945-1.158-3.701-1.158-4.77 0-.501-.071-.907-.158-.9s-.631.63-1.21 1.387c-1.426 1.863-5.247 5.49-6.698 6.356-2.393 1.43-3.628 1.816-5.823 1.818-1.875.002-2.082-.043-3.312-.71-2.829-1.534-4.458-4.254-5.198-8.676l-.127-.76-1.732 1.782c-3.32 3.414-6.772 5.816-10.31 7.172-1.807.694-2.115.747-4.367.76-2.327.012-2.48-.015-3.83-.679-4.165-2.048-6.095-7.826-5.78-17.301.446-13.365 5.189-25.316 12.286-30.956 1.892-1.503 3.645-2.373 5.953-2.953 4.199-1.055 9.164.218 12.847 3.295l.909.76.403-1.08c.287-.77.644-1.255 1.247-1.691 3.075-2.228 10.23-2.837 12.238-1.041.577.515.66.724.646 1.609-.017 1.013-.16 1.457-3.433 10.678-4.583 12.913-6.578 21.784-5.95 26.47.3 2.249.561 3.135 1.091 3.704 1.498 1.607 3.634.13 6.781-4.691 1.626-2.491 4.79-8.805 4.79-9.559 0-2.625 4.744-23.022 9.231-39.686.81-3.009 1.906-7.223 2.434-9.364s1.116-4.197 1.305-4.569c.954-1.87 5.548-3.396 9.513-3.159 3.209.192 4.454.882 4.454 2.47 0 .475-.62 2.87-1.379 5.323-1.773 5.735-7.89 26.4-10.508 35.5-3.73 12.96-4.704 17.535-4.89 22.949-.124 3.628.1 5.26.827 6.035.548.582.996.6 2.016.08 2.861-1.462 7.573-9.014 11.397-18.269 1.127-2.728 1.391-2.981 2.825-2.712.899.169 2.079 1.128 2.43 1.975.222.538.084.943-1.565 4.578-1.796 3.957-4.602 9.51-6.085 12.04-4.412 7.524-12.154 12.3-17.322 10.686m-37.693-9.499c2.04-1.413 5.17-6.626 7.445-12.395 2.005-5.085 5.572-16.498 5.572-17.826 0-.468-2.035-2.09-3.634-2.894-1.458-.734-3.18-.996-4.241-.646-1.046.345-2.914 2.112-4.114 3.89-4.015 5.949-6.8 15.39-6.831 23.158-.018 4.432.527 6.053 2.372 7.057 1.037.563 2.305.436 3.43-.344" style="fill:#000;stroke-width:.21044537" transform="translate(0 -87)"/></svg>