<?xml version="1.0" encoding="UTF-8" standalone="no"?>
<!-- Created with Inkscape (http://www.inkscape.org/) -->

<svg
   xmlns:dc="http://purl.org/dc/elements/1.1/"
   xmlns:cc="http://creativecommons.org/ns#"
   xmlns:rdf="http://www.w3.org/1999/02/22-rdf-syntax-ns#"
   xmlns:svg="http://www.w3.org/2000/svg"
   xmlns="http://www.w3.org/2000/svg"
   xmlns:sodipodi="http://sodipodi.sourceforge.net/DTD/sodipodi-0.dtd"
   xmlns:inkscape="http://www.inkscape.org/namespaces/inkscape"
   width="297mm"
   height="210mm"
   viewBox="0 0 297 210"
   version="1.1"
   id="svg8"
   inkscape:version="0.92.4 (5da689c313, 2019-01-14)"
   sodipodi:docname="gopal.svg">
  <defs
     id="defs2" />
  <sodipodi:namedview
     id="base"
     pagecolor="#ffffff"
     bordercolor="#666666"
     borderopacity="1.0"
     inkscape:pageopacity="0.0"
     inkscape:pageshadow="2"
     inkscape:zoom="1.0684127"
     inkscape:cx="620.87869"
     inkscape:cy="396.85039"
     inkscape:document-units="mm"
     inkscape:current-layer="layer1"
     showgrid="false"
     inkscape:window-width="1920"
     inkscape:window-height="1017"
     inkscape:window-x="-8"
     inkscape:window-y="-8"
     inkscape:window-maximized="1" />
  <metadata
     id="metadata5">
    <rdf:RDF>
      <cc:Work
         rdf:about="">
        <dc:format>image/svg+xml</dc:format>
        <dc:type
           rdf:resource="http://purl.org/dc/dcmitype/StillImage" />
        <dc:title />
      </cc:Work>
    </rdf:RDF>
  </metadata>
  <g
     inkscape:label="Layer 1"
     inkscape:groupmode="layer"
     id="layer1"
     transform="translate(0,-87)">
    <path
       style="fill:#000000;stroke-width:0.21044537"
       d="m 58.713905,247.93052 c -4.367368,-1.21886 -8.260355,-4.26611 -9.445356,-7.39339 -0.499461,-1.31811 -0.582281,-3.59672 -0.18443,-5.07422 1.204536,-4.47331 6.519764,-9.98466 12.515163,-12.97696 2.2432,-1.11958 5.097418,-2.10992 7.013864,-2.43362 l 1.562761,-0.26396 0.397049,-1.25273 c 0.218377,-0.689 0.921589,-3.05204 1.562692,-5.25119 0.641103,-2.19915 1.207493,-4.12332 1.258646,-4.27593 0.0965,-0.2879 -0.06806,-0.1653 -2.68752,2.00226 -5.124938,4.24081 -10.869631,6.94672 -15.210408,7.16452 -6.981588,0.35029 -12.427621,-3.2134 -15.796436,-10.33663 -1.111874,-2.35101 -1.798229,-4.67525 -2.43498,-8.24567 -0.425401,-2.38534 -0.485467,-3.4023 -0.484025,-8.19487 0.0018,-5.97662 0.224416,-8.23044 1.366,-13.82962 2.312976,-11.34456 6.865552,-21.58612 12.936071,-29.10123 1.734142,-2.14682 5.475082,-5.8528 7.359605,-7.29083 4.825479,-3.68222 9.926073,-5.44297 15.758358,-5.43988 9.443637,0.005 16.879727,4.25861 20.335047,11.63208 1.31129,2.79821 1.75893,4.9661 1.74775,8.46422 -0.01,3.13369 -0.23891,4.84317 -0.94396,7.04992 -1.47501,4.61663 -4.34041,7.47448 -8.3453,8.32329 -3.47589,0.73669 -7.6263,-0.11102 -9.293679,-1.89821 l -0.523649,-0.56128 0.799713,-1.40617 c 1.611616,-2.83379 4.127478,-8.19877 4.85359,-10.35011 1.000205,-2.96341 1.391685,-4.93969 1.391685,-7.02548 0,-2.1014 -0.41416,-3.60173 -1.320677,-4.78425 -1.66268,-2.1689 -5.290533,-2.66023 -8.894374,-1.20457 -4.836839,1.95369 -10.566713,8.51749 -14.79726,16.95085 -4.555162,9.08047 -7.511765,19.1894 -7.988826,27.31459 -0.415878,7.08318 0.715502,11.89081 3.474337,14.76365 1.263998,1.31624 2.46663,1.91635 4.204381,2.09798 3.810978,0.39832 10.330115,-3.26143 16.805481,-9.43436 2.195772,-2.09321 1.96044,-1.49549 3.04853,-7.74294 1.105935,-6.34989 2.062641,-9.19878 3.568899,-10.62749 0.621237,-0.58925 0.773671,-0.63133 2.286869,-0.63133 1.40222,0 1.808,0.0919 3.00329,0.6805 1.51378,0.74538 3.11211,2.27498 4.04776,3.8737 0.7587,1.29638 1.26252,3.73392 1.0813,5.23151 -0.47189,3.89964 -3.49385,15.37828 -7.44688,28.28624 -0.81212,2.65187 -1.42751,4.90101 -1.36751,4.99808 0.06,0.0971 0.79007,0.17979 1.62239,0.18383 4.34875,0.0211 7.05227,1.2396 9.09835,4.10074 1.50472,2.10411 2.46899,5.26016 1.99114,6.51699 -0.27826,0.73187 -0.67681,0.67147 -3.32795,-0.5044 -2.87095,-1.27337 -5.77692,-1.95918 -11.193701,-2.64174 l -0.947004,-0.11933 -0.709321,1.84439 c -1.161223,3.01944 -3.428711,7.40401 -5.09519,9.85241 -2.783489,4.08952 -6.811013,7.63388 -9.903546,8.71546 -1.895439,0.66291 -4.865352,0.77081 -6.748739,0.24518 z m 1.563782,-6.95663 c 1.261561,-0.80006 2.985321,-2.90522 4.114939,-5.02542 1.283732,-2.40946 3.040772,-7.07391 2.694549,-7.15327 -0.810105,-0.18569 -5.034533,1.87878 -6.6006,3.22571 -2.017704,1.73536 -3.609109,4.81788 -3.617318,7.00667 -0.0045,1.19436 0.05835,1.39483 0.610153,1.94662 0.792375,0.79238 1.548467,0.7923 2.798277,-2.1e-4 z m 71.610343,2.8393 c -0.89859,-0.33327 -1.99923,-1.39033 -1.99923,-1.92007 0,-0.17651 0.85095,-4.46021 1.89101,-9.51933 1.04006,-5.05913 2.84546,-14.12283 4.012,-20.14157 1.16654,-6.01873 2.17474,-11.12817 2.24045,-11.35429 0.0891,-0.30648 -0.14207,-0.19514 -0.90792,0.43734 -2.13894,1.76643 -4.49251,3.10524 -7.0251,3.99615 -1.28801,0.4531 -1.41496,0.55863 -2.17385,1.80699 -3.60798,5.93509 -9.53109,10.87844 -14.58249,12.17037 -2.84399,0.72737 -6.95119,0.41448 -9.81053,-0.74738 -3.875114,-1.5746 -7.641814,-5.50435 -9.485554,-9.89618 -2.09699,-4.99505 -2.66823,-13.82054 -1.18572,-18.319 0.59967,-1.8196 1.64152,-3.44414 2.51467,-3.92109 0.92445,-0.50497 2.67322,-0.40631 3.97877,0.22446 0.764134,0.36919 0.879134,0.3831 0.767754,0.0929 -0.668444,-1.74196 -0.772784,-5.41519 -0.221704,-7.80509 1.670434,-7.2442 7.798004,-13.45147 14.669434,-14.86024 10.25779,-2.10303 19.09885,5.17181 20.88233,17.18295 0.72177,4.86085 0.0696,10.45147 -1.7794,15.25318 -0.32486,0.84365 -0.52791,1.53321 -0.45123,1.53235 0.0767,-8.4e-4 0.68251,-0.43354 1.34627,-0.96151 1.60914,-1.27992 3.64401,-3.86093 4.85551,-6.15869 0.94967,-1.80115 1.04669,-2.15938 2.55207,-9.42328 2.24571,-10.83624 2.66892,-12.76461 2.89651,-13.19818 0.56561,-1.07754 3.2752,-1.29166 5.76569,-0.45563 3.0291,1.01683 4.08358,2.18109 4.08358,4.50871 v 1.29478 l 1.84242,-1.84955 c 4.2585,-4.27496 9.58267,-6.79764 13.79231,-6.53501 2.32335,0.14495 3.64173,0.72615 4.98759,2.19873 2.46575,2.69793 3.73317,7.36171 3.9356,14.48212 0.17858,6.28118 -0.68276,12.26127 -2.58699,17.9609 -3.01314,9.01877 -8.13303,15.02606 -14.07923,16.5195 -4.97536,1.24961 -9.27228,0.12097 -14.04378,-3.68876 -0.31641,-0.25262 -0.61048,-0.41831 -0.65351,-0.36819 -0.13811,0.1609 -2.18436,10.56425 -3.81969,19.41972 -0.87307,4.72773 -1.6724,8.7525 -1.77631,8.94393 -0.53568,0.98694 -2.14464,2.00868 -4.42392,2.80932 -1.57949,0.55484 -4.86459,0.71269 -6.00781,0.28868 z m -18.35041,-32.2005 c 0.44006,-0.15697 1.19077,-0.55529 1.66825,-0.88516 0.98585,-0.68108 2.94446,-2.9528 3.54251,-4.10884 l 0.40005,-0.77328 -1.41668,-0.46636 c -3.27508,-1.07813 -5.57801,-2.56307 -9.54509,-6.15472 l -2.23593,-2.02434 -0.12926,0.78186 c -0.22883,1.38417 -0.12784,6.20506 0.16428,7.84238 0.67709,3.79504 2.87419,6.00908 6.01519,6.06155 0.40511,0.007 1.09661,-0.11613 1.53668,-0.27309 z m 45.46073,-4.24061 c 2.68607,-0.91524 5.88597,-6.85689 7.80946,-14.50083 1.08271,-4.3027 1.43727,-6.92928 1.46301,-10.83794 0.0283,-4.29973 -0.26268,-5.61254 -1.54225,-6.95765 -2.71366,-2.85264 -6.44385,0.2399 -9.84806,8.16463 -2.10698,4.90485 -4.70312,13.58949 -5.98545,20.02255 l -0.2676,1.34244 0.73166,0.62394 c 2.54919,2.17387 5.29102,2.94297 7.63923,2.14286 z m -36.24252,-8.02963 c 0.81992,-2.1355 1.95169,-7.58567 2.28335,-10.99578 0.38419,-3.9502 -0.16748,-9.24063 -1.24995,-11.98688 -0.92485,-2.34637 -3.00471,-4.55364 -4.87668,-5.1754 -2.96274,-0.98407 -6.66411,0.9166 -8.37142,4.29876 -1.01778,2.01621 -1.33655,3.73056 -1.21795,6.55016 0.32063,7.62279 4.79472,14.60397 11.07764,17.28509 1.74701,0.74551 2.07671,0.74887 2.35501,0.024 z m 112.40903,19.84282 c -1.81888,-0.5682 -3.97168,-2.32222 -4.78824,-3.90128 -0.4885,-0.94466 -1.15761,-3.70117 -1.15761,-4.76899 0,-0.50234 -0.071,-0.9079 -0.15783,-0.90124 -0.0868,0.007 -0.63134,0.63088 -1.21006,1.38717 -1.42597,1.86347 -5.24712,5.48994 -6.69786,6.35661 -2.39369,1.42999 -3.6279,1.81514 -5.82364,1.81736 -1.87447,0.002 -2.08114,-0.0424 -3.31178,-0.70979 -2.82851,-1.53393 -4.45827,-4.25443 -5.19743,-8.67586 l -0.12696,-0.7594 -1.73222,1.78113 c -3.32081,3.41458 -6.77228,5.81581 -10.30957,7.17247 -1.80792,0.6934 -2.1156,0.74688 -4.36794,0.75926 -2.32644,0.0128 -2.47908,-0.0142 -3.82955,-0.67836 -4.16502,-2.04821 -6.09521,-7.82627 -5.77962,-17.3014 0.44515,-13.36452 5.18832,-25.31617 12.28522,-30.95582 1.89202,-1.50352 3.64568,-2.3735 5.95322,-2.95336 4.19872,-1.05509 9.16359,0.21862 12.84665,3.29573 l 0.90934,0.75973 0.40279,-1.07978 c 0.28749,-0.77067 0.64453,-1.25489 1.24723,-1.69148 3.07534,-2.22776 10.22987,-2.83649 12.23814,-1.04125 0.57688,0.51567 0.66047,0.72392 0.64584,1.60894 -0.0168,1.01321 -0.15945,1.45711 -3.43278,10.67877 -4.58333,12.91217 -6.57787,21.7837 -5.95106,26.46978 0.30075,2.2484 0.56207,3.13439 1.09236,3.70359 1.49763,1.60752 3.63381,0.12962 6.78071,-4.69116 1.62586,-2.49069 4.78947,-8.80435 4.78947,-9.55843 0,-2.62553 4.74482,-23.02263 9.2318,-39.68579 0.81036,-3.00937 1.90554,-7.22354 2.43374,-9.36482 0.52819,-2.14128 1.11534,-4.19695 1.30472,-4.56816 0.95456,-1.87089 5.54801,-3.39617 9.51343,-3.159 3.20826,0.19189 4.45332,0.8821 4.45332,2.46872 0,0.47552 -0.62041,2.87123 -1.37867,5.3238 -1.77313,5.73502 -7.89014,26.39967 -10.50844,35.49991 -3.72863,12.95929 -4.7035,17.53503 -4.88928,22.94877 -0.12452,3.62814 0.0992,5.26005 0.8272,6.035 0.54756,0.58285 0.99581,0.60062 2.01556,0.0799 2.86124,-1.46105 7.57286,-9.0132 11.39703,-18.26799 1.12729,-2.72814 1.39115,-2.98151 2.82487,-2.71254 0.89898,0.16865 2.07861,1.12762 2.4297,1.97521 0.22282,0.53797 0.0843,0.94331 -1.56494,4.57816 -1.79541,3.95712 -4.60202,9.50991 -6.08513,12.03938 -4.41186,7.52438 -12.15404,12.30087 -17.32173,10.68653 z m -37.69321,-9.4991 c 2.03946,-1.41335 5.1705,-6.6263 7.44512,-12.39557 2.0048,-5.08493 5.5726,-16.49724 5.5726,-17.82507 0,-0.46867 -2.03523,-2.08954 -3.63459,-2.89462 -1.45743,-0.73363 -3.18013,-0.99595 -4.24109,-0.6458 -1.04567,0.3451 -2.914,2.11176 -4.11406,3.89016 -4.01421,5.9488 -6.79894,15.38927 -6.83092,23.15736 -0.0182,4.43235 0.52684,6.05388 2.37229,7.05716 1.03674,0.56362 2.30477,0.43661 3.43065,-0.34362 z"
       id="path3724"
       inkscape:connector-curvature="0"
       sodipodi:nodetypes="cccsscsscscssssccscccsccccscssscccscsccsccccccscsssccssccccccsssccccscccccccssccccsccsccsccssccccccccsccscccscccsccccccccsscssccccssccscsccsccccssccccccscscsccccscsccscccccccccscccccc" />
  </g>
</svg>
